<svg width="1080" height="396" viewBox="0 0 1080 396" fill="none" xmlns="http://www.w3.org/2000/svg">
<rect width="1080" height="395.604" fill="#F6F8FF"/>
<g filter="url(#filter0_d_208_49)">
<rect x="340.22" y="126.594" width="399.56" height="142.418" rx="26.1099" fill="white"/>
<rect x="341.308" y="127.681" width="397.385" height="140.242" rx="25.022" stroke="#CDCDCD" stroke-width="2.17582"/>
</g>
<path d="M419.753 156.87C442.517 156.87 461.097 175.888 461.097 199.506C461.097 223.125 442.516 242.142 419.753 242.142C396.989 242.142 378.408 223.125 378.408 199.506C378.408 175.888 396.989 156.87 419.753 156.87Z" stroke="#FF824D" stroke-width="5.16805"/>
<path d="M432.372 184.732C433.324 183.773 434.394 183.196 435.79 183.395C438.116 183.725 439.272 186.209 437.895 188.109C437.895 188.109 420.679 205.663 413.342 213.013C410.609 215.751 409.465 215.665 406.769 212.851C403.599 209.541 400.35 206.308 397.134 203.042C394.917 200.792 394.631 199.196 396.171 197.662C397.781 196.059 399.514 196.317 401.714 198.491C404.515 201.259 407.315 204.029 410.242 206.923C413.751 203.407 432.372 184.732 432.372 184.732Z" fill="#FF824D"/>
<path d="M419.583 212.72L443.476 188.137C444.528 187.054 446.261 187.034 447.338 188.093C448.41 189.147 448.425 190.871 447.371 191.944L426.954 212.721C424.929 214.782 421.607 214.782 419.583 212.72Z" fill="#FF824D"/>
<path d="M420.9 207.481C421.148 207.24 421.542 207.237 421.794 207.474L427.05 212.435C424.984 214.624 421.53 214.712 419.355 212.631L417.926 211.263C417.674 211.022 417.672 210.62 417.922 210.377L420.9 207.481Z" fill="#FF824D"/>
<path d="M491.515 207.996V209.637H489.874V207.996H491.515ZM491.515 206.356V207.996H489.874V206.356H491.515ZM491.515 204.716V206.356H489.874V204.716H491.515ZM491.515 203.076V204.716H489.874V203.076H491.515ZM491.515 201.435V203.076H489.874V201.435H491.515ZM491.515 199.795V201.435H489.874V199.795H491.515ZM491.515 198.155V199.795H489.874V198.155H491.515ZM491.515 196.514V198.155H489.874V196.514H491.515ZM491.515 194.874V196.514H489.874V194.874H491.515ZM491.515 193.234V194.874H489.874V193.234H491.515ZM491.515 191.593V193.234H489.874V191.593H491.515ZM493.155 191.593V193.234H491.515V191.593H493.155ZM493.155 193.234V194.874H491.515V193.234H493.155ZM493.155 194.874V196.514H491.515V194.874H493.155ZM493.155 196.514V198.155H491.515V196.514H493.155ZM493.155 198.155V199.795H491.515V198.155H493.155ZM493.155 199.795V201.435H491.515V199.795H493.155ZM493.155 201.435V203.076H491.515V201.435H493.155ZM494.795 203.076V204.716H493.155V203.076H494.795ZM494.795 204.716V206.356H493.155V204.716H494.795ZM494.795 206.356V207.996H493.155V206.356H494.795ZM494.795 207.996V209.637H493.155V207.996H494.795ZM494.795 209.637V211.277H493.155V209.637H494.795ZM494.795 211.277V212.917H493.155V211.277H494.795ZM494.795 212.917V214.558H493.155V212.917H494.795ZM498.076 214.558V216.198H496.436V214.558H498.076ZM498.076 212.917V214.558H496.436V212.917H498.076ZM498.076 211.277V212.917H496.436V211.277H498.076ZM498.076 209.637V211.277H496.436V209.637H498.076ZM498.076 207.996V209.637H496.436V207.996H498.076ZM498.076 206.356V207.996H496.436V206.356H498.076ZM498.076 204.716V206.356H496.436V204.716H498.076ZM498.076 203.076V204.716H496.436V203.076H498.076ZM496.436 203.076V204.716H494.795V203.076H496.436ZM496.436 201.435V203.076H494.795V201.435H496.436ZM496.436 204.716V206.356H494.795V204.716H496.436ZM496.436 206.356V207.996H494.795V206.356H496.436ZM496.436 207.996V209.637H494.795V207.996H496.436ZM496.436 209.637V211.277H494.795V209.637H496.436ZM496.436 211.277V212.917H494.795V211.277H496.436ZM496.436 212.917V214.558H494.795V212.917H496.436ZM493.155 211.277V212.917H491.515V211.277H493.155ZM493.155 209.637V211.277H491.515V209.637H493.155ZM493.155 207.996V209.637H491.515V207.996H493.155ZM493.155 206.356V207.996H491.515V206.356H493.155ZM493.155 204.716V206.356H491.515V204.716H493.155ZM493.155 203.076V204.716H491.515V203.076H493.155ZM491.515 189.953V191.593H489.874V189.953H491.515ZM496.436 189.953V191.593H494.795V189.953H496.436ZM496.436 191.593V193.234H494.795V191.593H496.436ZM496.436 193.234V194.874H494.795V193.234H496.436ZM496.436 194.874V196.514H494.795V194.874H496.436ZM496.436 196.514V198.155H494.795V196.514H496.436ZM498.076 198.155V199.795H496.436V198.155H498.076ZM498.076 199.795V201.435H496.436V199.795H498.076ZM498.076 201.435V203.076H496.436V201.435H498.076ZM498.076 196.514V198.155H496.436V196.514H498.076ZM498.076 194.874V196.514H496.436V194.874H498.076ZM498.076 193.234V194.874H496.436V193.234H498.076ZM498.076 191.593V193.234H496.436V191.593H498.076ZM498.076 189.953V191.593H496.436V189.953H498.076ZM493.155 189.953V191.593H491.515V189.953H493.155ZM494.795 189.953V191.593H493.155V189.953H494.795ZM494.795 191.593V193.234H493.155V191.593H494.795ZM494.795 193.234V194.874H493.155V193.234H494.795ZM494.795 194.874V196.514H493.155V194.874H494.795ZM494.795 196.514V198.155H493.155V196.514H494.795ZM494.795 198.155V199.795H493.155V198.155H494.795ZM494.795 199.795V201.435H493.155V199.795H494.795ZM494.795 201.435V203.076H493.155V201.435H494.795ZM496.436 199.795V201.435H494.795V199.795H496.436ZM496.436 198.155V199.795H494.795V198.155H496.436ZM511.198 214.558V216.198H509.558V214.558H511.198ZM511.198 212.917V214.558H509.558V212.917H511.198ZM511.198 211.277V212.917H509.558V211.277H511.198ZM511.198 209.637V211.277H509.558V209.637H511.198ZM511.198 207.996V209.637H509.558V207.996H511.198ZM511.198 206.356V207.996H509.558V206.356H511.198ZM511.198 204.716V206.356H509.558V204.716H511.198ZM514.479 204.716V206.356H512.839V204.716H514.479ZM514.479 206.356V207.996H512.839V206.356H514.479ZM514.479 207.996V209.637H512.839V207.996H514.479ZM514.479 209.637V211.277H512.839V209.637H514.479ZM514.479 211.277V212.917H512.839V211.277H514.479ZM514.479 212.917V214.558H512.839V212.917H514.479ZM517.76 207.996V209.637H516.119V207.996H517.76ZM517.76 206.356V207.996H516.119V206.356H517.76ZM517.76 204.716V206.356H516.119V204.716H517.76ZM516.119 204.716V206.356H514.479V204.716H516.119ZM516.119 206.356V207.996H514.479V206.356H516.119ZM516.119 207.996V209.637H514.479V207.996H516.119ZM516.119 209.637V211.277H514.479V209.637H516.119ZM516.119 211.277V212.917H514.479V211.277H516.119ZM512.839 212.917V214.558H511.198V212.917H512.839ZM512.839 211.277V212.917H511.198V211.277H512.839ZM512.839 209.637V211.277H511.198V209.637H512.839ZM512.839 207.996V209.637H511.198V207.996H512.839ZM512.839 206.356V207.996H511.198V206.356H512.839ZM512.839 204.716V206.356H511.198V204.716H512.839ZM499.716 214.558V216.198H498.076V214.558H499.716ZM501.357 214.558V216.198H499.716V214.558H501.357ZM502.997 214.558V216.198H501.357V214.558H502.997ZM504.637 214.558V216.198H502.997V214.558H504.637ZM506.277 214.558V216.198H504.637V214.558H506.277ZM509.558 214.558V216.198H507.918V214.558H509.558ZM509.558 212.917V214.558H507.918V212.917H509.558ZM506.277 212.917V214.558H504.637V212.917H506.277ZM504.637 212.917V214.558H502.997V212.917H504.637ZM502.997 212.917V214.558H501.357V212.917H502.997ZM501.357 212.917V214.558H499.716V212.917H501.357ZM499.716 212.917V214.558H498.076V212.917H499.716ZM499.716 211.277V212.917H498.076V211.277H499.716ZM501.357 211.277V212.917H499.716V211.277H501.357ZM502.997 211.277V212.917H501.357V211.277H502.997ZM504.637 211.277V212.917H502.997V211.277H504.637ZM506.277 211.277V212.917H504.637V211.277H506.277ZM509.558 211.277V212.917H507.918V211.277H509.558ZM509.558 209.637V211.277H507.918V209.637H509.558ZM506.277 209.637V211.277H504.637V209.637H506.277ZM504.637 209.637V211.277H502.997V209.637H504.637ZM502.997 209.637V211.277H501.357V209.637H502.997ZM501.357 209.637V211.277H499.716V209.637H501.357ZM499.716 209.637V211.277H498.076V209.637H499.716ZM499.716 207.996V209.637H498.076V207.996H499.716ZM509.558 207.996V209.637H507.918V207.996H509.558ZM516.119 183.392V181.751H517.76V183.392H516.119ZM516.119 185.032V183.392H517.76V185.032H516.119ZM516.119 186.672V185.032H517.76V186.672H516.119ZM512.839 186.672V185.032H514.479V186.672H512.839ZM512.839 185.032V183.392H514.479V185.032H512.839ZM512.839 183.392V181.751H514.479V183.392H512.839ZM512.839 181.751V180.111H514.479V181.751H512.839ZM512.839 180.111V178.471H514.479V180.111H512.839ZM512.839 178.471V176.831H514.479V178.471H512.839ZM509.558 176.831V175.19H511.198V176.831H509.558ZM509.558 178.471V176.831H511.198V178.471H509.558ZM509.558 180.111V178.471H511.198V180.111H509.558ZM509.558 181.751V180.111H511.198V181.751H509.558ZM509.558 183.392V181.751H511.198V183.392H509.558ZM509.558 185.032V183.392H511.198V185.032H509.558ZM509.558 186.672V185.032H511.198V186.672H509.558ZM511.198 186.672V185.032H512.839V186.672H511.198ZM511.198 185.032V183.392H512.839V185.032H511.198ZM511.198 183.392V181.751H512.839V183.392H511.198ZM511.198 181.751V180.111H512.839V181.751H511.198ZM511.198 180.111V178.471H512.839V180.111H511.198ZM511.198 178.471V176.831H512.839V178.471H511.198ZM514.479 180.111V178.471H516.119V180.111H514.479ZM514.479 181.751V180.111H516.119V181.751H514.479ZM514.479 183.392V181.751H516.119V183.392H514.479ZM514.479 185.032V183.392H516.119V185.032H514.479ZM514.479 186.672V185.032H516.119V186.672H514.479ZM496.436 176.831V175.19H498.076V176.831H496.436ZM496.436 178.471V176.831H498.076V178.471H496.436ZM496.436 180.111V178.471H498.076V180.111H496.436ZM496.436 181.751V180.111H498.076V181.751H496.436ZM496.436 183.392V181.751H498.076V183.392H496.436ZM496.436 185.032V183.392H498.076V185.032H496.436ZM496.436 186.672V185.032H498.076V186.672H496.436ZM493.155 186.672V185.032H494.795V186.672H493.155ZM493.155 185.032V183.392H494.795V185.032H493.155ZM493.155 183.392V181.751H494.795V183.392H493.155ZM493.155 181.751V180.111H494.795V181.751H493.155ZM493.155 180.111V178.471H494.795V180.111H493.155ZM493.155 178.471V176.831H494.795V178.471H493.155ZM489.874 183.392V181.751H491.515V183.392H489.874ZM489.874 185.032V183.392H491.515V185.032H489.874ZM489.874 186.672V185.032H491.515V186.672H489.874ZM491.515 186.672V185.032H493.155V186.672H491.515ZM491.515 185.032V183.392H493.155V185.032H491.515ZM491.515 183.392V181.751H493.155V183.392H491.515ZM491.515 181.751V180.111H493.155V181.751H491.515ZM491.515 180.111V178.471H493.155V180.111H491.515ZM494.795 178.471V176.831H496.436V178.471H494.795ZM494.795 180.111V178.471H496.436V180.111H494.795ZM494.795 181.751V180.111H496.436V181.751H494.795ZM494.795 183.392V181.751H496.436V183.392H494.795ZM494.795 185.032V183.392H496.436V185.032H494.795ZM494.795 186.672V185.032H496.436V186.672H494.795ZM507.918 176.831V175.19H509.558V176.831H507.918ZM504.637 176.831V175.19H506.277V176.831H504.637ZM502.997 176.831V175.19H504.637V176.831H502.997ZM501.357 176.831V175.19H502.997V176.831H501.357ZM499.716 176.831V175.19H501.357V176.831H499.716ZM498.076 176.831V175.19H499.716V176.831H498.076ZM498.076 178.471V176.831H499.716V178.471H498.076ZM499.716 178.471V176.831H501.357V178.471H499.716ZM501.357 178.471V176.831H502.997V178.471H501.357ZM502.997 178.471V176.831H504.637V178.471H502.997ZM504.637 178.471V176.831H506.277V178.471H504.637ZM507.918 178.471V176.831H509.558V178.471H507.918ZM507.918 180.111V178.471H509.558V180.111H507.918ZM504.637 180.111V178.471H506.277V180.111H504.637ZM502.997 180.111V178.471H504.637V180.111H502.997ZM501.357 180.111V178.471H502.997V180.111H501.357ZM499.716 180.111V178.471H501.357V180.111H499.716ZM498.076 180.111V178.471H499.716V180.111H498.076ZM498.076 181.751V180.111H499.716V181.751H498.076ZM499.716 181.751V180.111H501.357V181.751H499.716ZM501.357 181.751V180.111H502.997V181.751H501.357ZM502.997 181.751V180.111H504.637V181.751H502.997ZM504.637 181.751V180.111H506.277V181.751H504.637ZM507.918 181.751V180.111H509.558V181.751H507.918ZM507.918 183.392V181.751H509.558V183.392H507.918ZM498.076 183.392V181.751H499.716V183.392H498.076ZM491.515 188.313V189.953H489.874V188.313H491.515ZM493.155 188.313V189.953H491.515V188.313H493.155ZM491.515 186.672V188.313H489.874V186.672H491.515ZM496.436 186.672V188.313H494.795V186.672H496.436ZM496.436 188.313V189.953H494.795V188.313H496.436ZM498.076 188.313V189.953H496.436V188.313H498.076ZM498.076 186.672V188.313H496.436V186.672H498.076ZM493.155 186.672V188.313H491.515V186.672H493.155ZM494.795 186.672V188.313H493.155V186.672H494.795ZM494.795 188.313V189.953H493.155V188.313H494.795ZM501.357 207.996V209.637H499.716V207.996H501.357ZM502.997 207.996V209.637H501.357V207.996H502.997ZM504.637 207.996V209.637H502.997V207.996H504.637ZM506.277 207.996V209.637H504.637V207.996H506.277ZM509.558 206.356V207.996H507.918V206.356H509.558ZM499.716 206.356V207.996H498.076V206.356H499.716ZM511.198 203.076V204.716H509.558V203.076H511.198ZM512.839 203.076V204.716H511.198V203.076H512.839ZM514.479 203.076V204.716H512.839V203.076H514.479ZM516.119 203.076V204.716H514.479V203.076H516.119ZM517.76 203.076V204.716H516.119V203.076H517.76ZM499.716 183.392V185.032H498.076V183.392H499.716ZM501.357 181.751V183.392H499.716V181.751H501.357ZM502.997 181.751V183.392H501.357V181.751H502.997ZM504.637 181.751V183.392H502.997V181.751H504.637ZM506.277 181.751V183.392H504.637V181.751H506.277ZM509.558 183.392V185.032H507.918V183.392H509.558ZM511.198 186.672V188.313H509.558V186.672H511.198ZM512.839 186.672V188.313H511.198V186.672H512.839ZM514.479 186.672V188.313H512.839V186.672H514.479ZM516.119 186.672V188.313H514.479V186.672H516.119ZM517.76 186.672V188.313H516.119V186.672H517.76ZM507.918 175.19V176.831H506.277V175.19H507.918ZM507.918 176.831V178.471H506.277V176.831H507.918ZM507.918 178.471V180.111H506.277V178.471H507.918ZM507.918 180.111V181.751H506.277V180.111H507.918ZM507.918 181.751V183.392H506.277V181.751H507.918ZM507.918 207.996V209.637H506.277V207.996H507.918ZM507.918 209.637V211.277H506.277V209.637H507.918ZM507.918 211.277V212.917H506.277V211.277H507.918ZM507.918 212.917V214.558H506.277V212.917H507.918ZM507.918 214.558V216.198H506.277V214.558H507.918ZM525.929 214.558V216.198H524.289V214.558H525.929ZM525.929 212.917V214.558H524.289V212.917H525.929ZM525.929 211.277V212.917H524.289V211.277H525.929ZM525.929 209.637V211.277H524.289V209.637H525.929ZM525.929 207.996V209.637H524.289V207.996H525.929ZM525.929 206.356V207.996H524.289V206.356H525.929ZM525.929 204.716V206.356H524.289V204.716H525.929ZM525.929 203.076V204.716H524.289V203.076H525.929ZM525.929 201.435V203.076H524.289V201.435H525.929ZM525.929 199.795V201.435H524.289V199.795H525.929ZM525.929 198.155V199.795H524.289V198.155H525.929ZM525.929 196.514V198.155H524.289V196.514H525.929ZM525.929 194.874V196.514H524.289V194.874H525.929ZM525.929 193.234V194.874H524.289V193.234H525.929ZM525.929 191.593V193.234H524.289V191.593H525.929ZM527.569 191.593V193.234H525.929V191.593H527.569ZM527.569 193.234V194.874H525.929V193.234H527.569ZM527.569 194.874V196.514H525.929V194.874H527.569ZM527.569 196.514V198.155H525.929V196.514H527.569ZM527.569 198.155V199.795H525.929V198.155H527.569ZM527.569 199.795V201.435H525.929V199.795H527.569ZM527.569 201.435V203.076H525.929V201.435H527.569ZM529.21 203.076V204.716H527.569V203.076H529.21ZM529.21 204.716V206.356H527.569V204.716H529.21ZM529.21 206.356V207.996H527.569V206.356H529.21ZM529.21 207.996V209.637H527.569V207.996H529.21ZM529.21 209.637V211.277H527.569V209.637H529.21ZM529.21 211.277V212.917H527.569V211.277H529.21ZM529.21 212.917V214.558H527.569V212.917H529.21ZM529.21 214.558V216.198H527.569V214.558H529.21ZM530.85 214.558V216.198H529.21V214.558H530.85ZM532.49 214.558V216.198H530.85V214.558H532.49ZM532.49 212.917V214.558H530.85V212.917H532.49ZM532.49 211.277V212.917H530.85V211.277H532.49ZM532.49 209.637V211.277H530.85V209.637H532.49ZM532.49 207.996V209.637H530.85V207.996H532.49ZM532.49 206.356V207.996H530.85V206.356H532.49ZM532.49 204.716V206.356H530.85V204.716H532.49ZM532.49 203.076V204.716H530.85V203.076H532.49ZM530.85 203.076V204.716H529.21V203.076H530.85ZM530.85 201.435V203.076H529.21V201.435H530.85ZM530.85 204.716V206.356H529.21V204.716H530.85ZM530.85 206.356V207.996H529.21V206.356H530.85ZM530.85 207.996V209.637H529.21V207.996H530.85ZM530.85 209.637V211.277H529.21V209.637H530.85ZM530.85 211.277V212.917H529.21V211.277H530.85ZM530.85 212.917V214.558H529.21V212.917H530.85ZM527.569 214.558V216.198H525.929V214.558H527.569ZM527.569 212.917V214.558H525.929V212.917H527.569ZM527.569 211.277V212.917H525.929V211.277H527.569ZM527.569 209.637V211.277H525.929V209.637H527.569ZM527.569 207.996V209.637H525.929V207.996H527.569ZM527.569 206.356V207.996H525.929V206.356H527.569ZM527.569 204.716V206.356H525.929V204.716H527.569ZM527.569 203.076V204.716H525.929V203.076H527.569ZM525.929 175.19V176.831H524.289V175.19H525.929ZM525.929 176.831V178.471H524.289V176.831H525.929ZM525.929 178.471V180.111H524.289V178.471H525.929ZM525.929 180.111V181.751H524.289V180.111H525.929ZM525.929 181.751V183.392H524.289V181.751H525.929ZM525.929 183.392V185.032H524.289V183.392H525.929ZM525.929 185.032V186.672H524.289V185.032H525.929ZM525.929 186.672V188.313H524.289V186.672H525.929ZM525.929 188.313V189.953H524.289V188.313H525.929ZM525.929 189.953V191.593H524.289V189.953H525.929ZM530.85 175.19V176.831H529.21V175.19H530.85ZM530.85 176.831V178.471H529.21V176.831H530.85ZM530.85 178.471V180.111H529.21V178.471H530.85ZM530.85 180.111V181.751H529.21V180.111H530.85ZM530.85 181.751V183.392H529.21V181.751H530.85ZM530.85 183.392V185.032H529.21V183.392H530.85ZM530.85 186.672V188.313H529.21V186.672H530.85ZM530.85 188.313V189.953H529.21V188.313H530.85ZM530.85 189.953V191.593H529.21V189.953H530.85ZM530.85 191.593V193.234H529.21V191.593H530.85ZM530.85 193.234V194.874H529.21V193.234H530.85ZM530.85 194.874V196.514H529.21V194.874H530.85ZM530.85 196.514V198.155H529.21V196.514H530.85ZM532.49 198.155V199.795H530.85V198.155H532.49ZM532.49 199.795V201.435H530.85V199.795H532.49ZM532.49 201.435V203.076H530.85V201.435H532.49ZM532.49 196.514V198.155H530.85V196.514H532.49ZM532.49 194.874V196.514H530.85V194.874H532.49ZM532.49 193.234V194.874H530.85V193.234H532.49ZM532.49 191.593V193.234H530.85V191.593H532.49ZM532.49 189.953V191.593H530.85V189.953H532.49ZM532.49 188.313V189.953H530.85V188.313H532.49ZM532.49 186.672V188.313H530.85V186.672H532.49ZM532.49 185.032V186.672H530.85V185.032H532.49ZM532.49 183.392V185.032H530.85V183.392H532.49ZM532.49 181.751V183.392H530.85V181.751H532.49ZM530.85 185.032V186.672H529.21V185.032H530.85ZM532.49 180.111V181.751H530.85V180.111H532.49ZM532.49 178.471V180.111H530.85V178.471H532.49ZM532.49 176.831V178.471H530.85V176.831H532.49ZM532.49 175.19V176.831H530.85V175.19H532.49ZM529.21 175.19V176.831H527.569V175.19H529.21ZM527.569 175.19V176.831H525.929V175.19H527.569ZM527.569 176.831V178.471H525.929V176.831H527.569ZM529.21 176.831V178.471H527.569V176.831H529.21ZM529.21 178.471V180.111H527.569V178.471H529.21ZM529.21 180.111V181.751H527.569V180.111H529.21ZM529.21 181.751V183.392H527.569V181.751H529.21ZM529.21 183.392V185.032H527.569V183.392H529.21ZM529.21 185.032V186.672H527.569V185.032H529.21ZM529.21 186.672V188.313H527.569V186.672H529.21ZM527.569 188.313V189.953H525.929V188.313H527.569ZM527.569 189.953V191.593H525.929V189.953H527.569ZM527.569 186.672V188.313H525.929V186.672H527.569ZM527.569 185.032V186.672H525.929V185.032H527.569ZM527.569 183.392V185.032H525.929V183.392H527.569ZM527.569 181.751V183.392H525.929V181.751H527.569ZM527.569 180.111V181.751H525.929V180.111H527.569ZM527.569 178.471V180.111H525.929V178.471H527.569ZM529.21 188.313V189.953H527.569V188.313H529.21ZM529.21 189.953V191.593H527.569V189.953H529.21ZM529.21 191.593V193.234H527.569V191.593H529.21ZM529.21 193.234V194.874H527.569V193.234H529.21ZM529.21 194.874V196.514H527.569V194.874H529.21ZM529.21 196.514V198.155H527.569V196.514H529.21ZM529.21 198.155V199.795H527.569V198.155H529.21ZM529.21 199.795V201.435H527.569V199.795H529.21ZM529.21 201.435V203.076H527.569V201.435H529.21ZM530.85 199.795V201.435H529.21V199.795H530.85ZM530.85 198.155V199.795H529.21V198.155H530.85ZM557.109 194.874V196.514H555.469V194.874H557.109ZM558.75 194.874V196.514H557.109V194.874H558.75ZM560.39 194.874V196.514H558.75V194.874H560.39ZM562.03 194.874V196.514H560.39V194.874H562.03ZM563.671 194.874V196.514H562.03V194.874H563.671ZM563.671 193.234V194.874H562.03V193.234H563.671ZM563.671 191.593V193.234H562.03V191.593H563.671ZM562.03 191.593V193.234H560.39V191.593H562.03ZM560.39 191.593V193.234H558.75V191.593H560.39ZM558.75 191.593V193.234H557.109V191.593H558.75ZM558.75 193.234V194.874H557.109V193.234H558.75ZM557.109 193.234V194.874H555.469V193.234H557.109ZM560.39 193.234V194.874H558.75V193.234H560.39ZM562.03 193.234V194.874H560.39V193.234H562.03ZM557.109 191.593V193.234H555.469V191.593H557.109ZM555.469 191.593V193.234H553.829V191.593H555.469ZM555.469 189.953V191.593H553.829V189.953H555.469ZM557.109 189.953V191.593H555.469V189.953H557.109ZM558.75 189.953V191.593H557.109V189.953H558.75ZM560.39 189.953V191.593H558.75V189.953H560.39ZM562.03 189.953V191.593H560.39V189.953H562.03ZM562.03 188.313V189.953H560.39V188.313H562.03ZM560.39 188.313V189.953H558.75V188.313H560.39ZM558.75 188.313V189.953H557.109V188.313H558.75ZM557.109 188.313V189.953H555.469V188.313H557.109ZM555.469 188.313V189.953H553.829V188.313H555.469ZM558.75 186.672V188.313H557.109V186.672H558.75ZM560.39 186.672V188.313H558.75V186.672H560.39ZM557.109 186.672V188.313H555.469V186.672H557.109ZM557.109 185.032V186.672H555.469V185.032H557.109ZM555.469 185.032V186.672H553.829V185.032H555.469ZM555.469 186.672V188.313H553.829V186.672H555.469ZM553.829 186.672V188.313H552.189V186.672H553.829ZM553.829 185.032V186.672H552.189V185.032H553.829ZM553.829 188.313V189.953H552.189V188.313H553.829ZM552.189 188.313V189.953H550.548V188.313H552.189ZM552.189 189.953V191.593H550.548V189.953H552.189ZM553.829 189.953V191.593H552.189V189.953H553.829ZM550.548 189.953V191.593H548.908V189.953H550.548ZM550.548 188.313V189.953H548.908V188.313H550.548ZM550.548 186.672V188.313H548.908V186.672H550.548ZM550.548 185.032V186.672H548.908V185.032H550.548ZM552.189 185.032V186.672H550.548V185.032H552.189ZM552.189 186.672V188.313H550.548V186.672H552.189ZM548.908 185.032V186.672H547.268V185.032H548.908ZM547.268 185.032V186.672H545.627V185.032H547.268ZM545.627 185.032V186.672H543.987V185.032H545.627ZM545.627 186.672V188.313H543.987V186.672H545.627ZM545.627 188.313V189.953H543.987V188.313H545.627ZM545.627 189.953V191.593H543.987V189.953H545.627ZM547.268 189.953V191.593H545.627V189.953H547.268ZM548.908 189.953V191.593H547.268V189.953H548.908ZM548.908 188.313V189.953H547.268V188.313H548.908ZM548.908 186.672V188.313H547.268V186.672H548.908ZM547.268 186.672V188.313H545.627V186.672H547.268ZM547.268 188.313V189.953H545.627V188.313H547.268ZM543.987 188.313V189.953H542.347V188.313H543.987ZM543.987 186.672V188.313H542.347V186.672H543.987ZM542.347 186.672V188.313H540.706V186.672H542.347ZM542.347 188.313V189.953H540.706V188.313H542.347ZM540.706 188.313V189.953H539.066V188.313H540.706ZM540.706 189.953V191.593H539.066V189.953H540.706ZM540.706 191.593V193.234H539.066V191.593H540.706ZM542.347 191.593V193.234H540.706V191.593H542.347ZM542.347 189.953V191.593H540.706V189.953H542.347ZM543.987 189.953V191.593H542.347V189.953H543.987ZM543.987 191.593V193.234H542.347V191.593H543.987ZM545.627 191.593V193.234H543.987V191.593H545.627ZM547.268 191.593V193.234H545.627V191.593H547.268ZM539.066 191.593V193.234H537.426V191.593H539.066ZM539.066 193.234V194.874H537.426V193.234H539.066ZM539.066 194.874V196.514H537.426V194.874H539.066ZM539.066 196.514V198.155H537.426V196.514H539.066ZM539.066 198.155V199.795H537.426V198.155H539.066ZM539.066 199.795V201.435H537.426V199.795H539.066ZM539.066 201.435V203.076H537.426V201.435H539.066ZM539.066 203.076V204.716H537.426V203.076H539.066ZM539.066 204.716V206.356H537.426V204.716H539.066ZM539.066 206.356V207.996H537.426V206.356H539.066ZM540.706 206.356V207.996H539.066V206.356H540.706ZM540.706 207.996V209.637H539.066V207.996H540.706ZM539.066 207.996V209.637H537.426V207.996H539.066ZM542.347 207.996V209.637H540.706V207.996H542.347ZM543.987 207.996V209.637H542.347V207.996H543.987ZM545.627 207.996V209.637H543.987V207.996H545.627ZM547.268 207.996V209.637H545.627V207.996H547.268ZM545.627 206.356V207.996H543.987V206.356H545.627ZM545.627 204.716V206.356H543.987V204.716H545.627ZM545.627 203.076V204.716H543.987V203.076H545.627ZM545.627 201.435V203.076H543.987V201.435H545.627ZM545.627 199.795V201.435H543.987V199.795H545.627ZM545.627 198.155V199.795H543.987V198.155H545.627ZM545.627 196.514V198.155H543.987V196.514H545.627ZM545.627 194.874V196.514H543.987V194.874H545.627ZM545.627 193.234V194.874H543.987V193.234H545.627ZM543.987 193.234V194.874H542.347V193.234H543.987ZM542.347 193.234V194.874H540.706V193.234H542.347ZM540.706 193.234V194.874H539.066V193.234H540.706ZM540.706 194.874V196.514H539.066V194.874H540.706ZM540.706 196.514V198.155H539.066V196.514H540.706ZM540.706 198.155V199.795H539.066V198.155H540.706ZM540.706 199.795V201.435H539.066V199.795H540.706ZM540.706 201.435V203.076H539.066V201.435H540.706ZM540.706 203.076V204.716H539.066V203.076H540.706ZM540.706 204.716V206.356H539.066V204.716H540.706ZM542.347 206.356V207.996H540.706V206.356H542.347ZM543.987 206.356V207.996H542.347V206.356H543.987ZM543.987 204.716V206.356H542.347V204.716H543.987ZM543.987 203.076V204.716H542.347V203.076H543.987ZM543.987 201.435V203.076H542.347V201.435H543.987ZM543.987 199.795V201.435H542.347V199.795H543.987ZM542.347 199.795V201.435H540.706V199.795H542.347ZM542.347 198.155V199.795H540.706V198.155H542.347ZM542.347 196.514V198.155H540.706V196.514H542.347ZM542.347 194.874V196.514H540.706V194.874H542.347ZM543.987 194.874V196.514H542.347V194.874H543.987ZM543.987 196.514V198.155H542.347V196.514H543.987ZM543.987 198.155V199.795H542.347V198.155H543.987ZM542.347 203.076V204.716H540.706V203.076H542.347ZM542.347 204.716V206.356H540.706V204.716H542.347ZM542.347 201.435V203.076H540.706V201.435H542.347ZM557.109 206.356V207.996H555.469V206.356H557.109ZM558.75 206.356V207.996H557.109V206.356H558.75ZM560.39 206.356V207.996H558.75V206.356H560.39ZM562.03 206.356V207.996H560.39V206.356H562.03ZM563.671 206.356V207.996H562.03V206.356H563.671ZM563.671 207.996V209.637H562.03V207.996H563.671ZM562.03 207.996V209.637H560.39V207.996H562.03ZM560.39 207.996V209.637H558.75V207.996H560.39ZM558.75 207.996V209.637H557.109V207.996H558.75ZM557.109 207.996V209.637H555.469V207.996H557.109ZM555.469 207.996V209.637H553.829V207.996H555.469ZM555.469 209.637V211.277H553.829V209.637H555.469ZM557.109 209.637V211.277H555.469V209.637H557.109ZM558.75 209.637V211.277H557.109V209.637H558.75ZM560.39 209.637V211.277H558.75V209.637H560.39ZM560.39 211.277V212.917H558.75V211.277H560.39ZM562.03 211.277V212.917H560.39V211.277H562.03ZM562.03 209.637V211.277H560.39V209.637H562.03ZM560.39 212.917V214.558H558.75V212.917H560.39ZM558.75 212.917V214.558H557.109V212.917H558.75ZM558.75 211.277V212.917H557.109V211.277H558.75ZM557.109 211.277V212.917H555.469V211.277H557.109ZM557.109 212.917V214.558H555.469V212.917H557.109ZM557.109 214.558V216.198H555.469V214.558H557.109ZM555.469 214.558V216.198H553.829V214.558H555.469ZM553.829 214.558V216.198H552.189V214.558H553.829ZM552.189 214.558V216.198H550.548V214.558H552.189ZM550.548 214.558V216.198H548.908V214.558H550.548ZM548.908 214.558V216.198H547.268V214.558H548.908ZM547.268 214.558V216.198H545.627V214.558H547.268ZM545.627 214.558V216.198H543.987V214.558H545.627ZM547.268 212.917V214.558H545.627V212.917H547.268ZM548.908 212.917V214.558H547.268V212.917H548.908ZM550.548 212.917V214.558H548.908V212.917H550.548ZM552.189 212.917V214.558H550.548V212.917H552.189ZM553.829 212.917V214.558H552.189V212.917H553.829ZM555.469 212.917V214.558H553.829V212.917H555.469ZM555.469 211.277V212.917H553.829V211.277H555.469ZM553.829 211.277V212.917H552.189V211.277H553.829ZM552.189 211.277V212.917H550.548V211.277H552.189ZM550.548 211.277V212.917H548.908V211.277H550.548ZM548.908 211.277V212.917H547.268V211.277H548.908ZM547.268 211.277V212.917H545.627V211.277H547.268ZM545.627 212.917V214.558H543.987V212.917H545.627ZM543.987 212.917V214.558H542.347V212.917H543.987ZM542.347 212.917V214.558H540.706V212.917H542.347ZM542.347 211.277V212.917H540.706V211.277H542.347ZM540.706 211.277V212.917H539.066V211.277H540.706ZM540.706 209.637V211.277H539.066V209.637H540.706ZM542.347 209.637V211.277H540.706V209.637H542.347ZM543.987 209.637V211.277H542.347V209.637H543.987ZM545.627 209.637V211.277H543.987V209.637H545.627ZM547.268 209.637V211.277H545.627V209.637H547.268ZM548.908 209.637V211.277H547.268V209.637H548.908ZM550.548 209.637V211.277H548.908V209.637H550.548ZM552.189 209.637V211.277H550.548V209.637H552.189ZM553.829 209.637V211.277H552.189V209.637H553.829ZM545.627 211.277V212.917H543.987V211.277H545.627ZM543.987 211.277V212.917H542.347V211.277H543.987ZM563.671 196.514V198.155H562.03V196.514H563.671ZM562.03 196.514V198.155H560.39V196.514H562.03ZM560.39 196.514V198.155H558.75V196.514H560.39ZM558.75 196.514V198.155H557.109V196.514H558.75ZM557.109 196.514V198.155H555.469V196.514H557.109ZM563.671 198.155V199.795H562.03V198.155H563.671ZM560.39 198.155V199.795H558.75V198.155H560.39ZM558.75 198.155V199.795H557.109V198.155H558.75ZM555.469 198.155V199.795H553.829V198.155H555.469ZM553.829 198.155V199.795H552.189V198.155H553.829ZM552.189 198.155V199.795H550.548V198.155H552.189ZM550.548 198.155V199.795H548.908V198.155H550.548ZM548.908 198.155V199.795H547.268V198.155H548.908ZM547.268 198.155V199.795H545.627V198.155H547.268ZM557.109 198.155V199.795H555.469V198.155H557.109ZM562.03 198.155V199.795H560.39V198.155H562.03ZM563.671 199.795V201.435H562.03V199.795H563.671ZM562.03 199.795V201.435H560.39V199.795H562.03ZM560.39 199.795V201.435H558.75V199.795H560.39ZM558.75 199.795V201.435H557.109V199.795H558.75ZM557.109 199.795V201.435H555.469V199.795H557.109ZM555.469 199.795V201.435H553.829V199.795H555.469ZM553.829 199.795V201.435H552.189V199.795H553.829ZM552.189 199.795V201.435H550.548V199.795H552.189ZM550.548 199.795V201.435H548.908V199.795H550.548ZM548.908 199.795V201.435H547.268V199.795H548.908ZM547.268 199.795V201.435H545.627V199.795H547.268ZM547.268 201.435V203.076H545.627V201.435H547.268ZM548.908 201.435V203.076H547.268V201.435H548.908ZM550.548 201.435V203.076H548.908V201.435H550.548ZM553.829 201.435V203.076H552.189V201.435H553.829ZM555.469 201.435V203.076H553.829V201.435H555.469ZM557.109 201.435V203.076H555.469V201.435H557.109ZM558.75 201.435V203.076H557.109V201.435H558.75ZM560.39 201.435V203.076H558.75V201.435H560.39ZM562.03 201.435V203.076H560.39V201.435H562.03ZM563.671 201.435V203.076H562.03V201.435H563.671ZM552.189 201.435V203.076H550.548V201.435H552.189ZM573.541 206.356V204.716H575.182V206.356H573.541ZM571.901 206.356V204.716H573.541V206.356H571.901ZM570.261 206.356V204.716H571.901V206.356H570.261ZM568.621 206.356V204.716H570.261V206.356H568.621ZM566.98 206.356V204.716H568.621V206.356H566.98ZM566.98 207.996V206.356H568.621V207.996H566.98ZM566.98 209.637V207.996H568.621V209.637H566.98ZM568.621 209.637V207.996H570.261V209.637H568.621ZM570.261 209.637V207.996H571.901V209.637H570.261ZM571.901 209.637V207.996H573.541V209.637H571.901ZM571.901 207.996V206.356H573.541V207.996H571.901ZM573.541 207.996V206.356H575.182V207.996H573.541ZM570.261 207.996V206.356H571.901V207.996H570.261ZM568.621 207.996V206.356H570.261V207.996H568.621ZM573.541 209.637V207.996H575.182V209.637H573.541ZM575.182 209.637V207.996H576.822V209.637H575.182ZM575.182 211.277V209.637H576.822V211.277H575.182ZM573.541 211.277V209.637H575.182V211.277H573.541ZM571.901 211.277V209.637H573.541V211.277H571.901ZM570.261 211.277V209.637H571.901V211.277H570.261ZM568.621 211.277V209.637H570.261V211.277H568.621ZM568.621 212.917V211.277H570.261V212.917H568.621ZM570.261 212.917V211.277H571.901V212.917H570.261ZM571.901 212.917V211.277H573.541V212.917H571.901ZM573.541 212.917V211.277H575.182V212.917H573.541ZM575.182 212.917V211.277H576.822V212.917H575.182ZM571.901 214.558V212.917H573.541V214.558H571.901ZM570.261 214.558V212.917H571.901V214.558H570.261ZM573.541 214.558V212.917H575.182V214.558H573.541ZM573.541 216.198V214.558H575.182V216.198H573.541ZM575.182 216.198V214.558H576.822V216.198H575.182ZM575.182 214.558V212.917H576.822V214.558H575.182ZM576.822 214.558V212.917H578.462V214.558H576.822ZM576.822 216.198V214.558H578.462V216.198H576.822ZM576.822 212.917V211.277H578.462V212.917H576.822ZM578.462 212.917V211.277H580.103V212.917H578.462ZM578.462 211.277V209.637H580.103V211.277H578.462ZM576.822 211.277V209.637H578.462V211.277H576.822ZM580.103 211.277V209.637H581.743V211.277H580.103ZM580.103 212.917V211.277H581.743V212.917H580.103ZM580.103 214.558V212.917H581.743V214.558H580.103ZM580.103 216.198V214.558H581.743V216.198H580.103ZM578.462 216.198V214.558H580.103V216.198H578.462ZM578.462 214.558V212.917H580.103V214.558H578.462ZM581.743 216.198V214.558H583.383V216.198H581.743ZM585.024 214.558V212.917H586.664V214.558H585.024ZM585.024 212.917V211.277H586.664V212.917H585.024ZM585.024 211.277V209.637H586.664V211.277H585.024ZM583.383 211.277V209.637H585.024V211.277H583.383ZM581.743 211.277V209.637H583.383V211.277H581.743ZM581.743 212.917V211.277H583.383V212.917H581.743ZM581.743 214.558V212.917H583.383V214.558H581.743ZM583.383 214.558V212.917H585.024V214.558H583.383ZM583.383 212.917V211.277H585.024V212.917H583.383ZM586.664 212.917V211.277H588.304V212.917H586.664ZM586.664 214.558V212.917H588.304V214.558H586.664ZM588.304 214.558V212.917H589.945V214.558H588.304ZM588.304 212.917V211.277H589.945V212.917H588.304ZM589.945 212.917V211.277H591.585V212.917H589.945ZM589.945 211.277V209.637H591.585V211.277H589.945ZM589.945 209.637V207.996H591.585V209.637H589.945ZM588.304 209.637V207.996H589.945V209.637H588.304ZM588.304 211.277V209.637H589.945V211.277H588.304ZM586.664 211.277V209.637H588.304V211.277H586.664ZM586.664 209.637V207.996H588.304V209.637H586.664ZM585.024 209.637V207.996H586.664V209.637H585.024ZM591.585 209.637V207.996H593.225V209.637H591.585ZM591.585 207.996V206.356H593.225V207.996H591.585ZM591.585 206.356V204.716H593.225V206.356H591.585ZM591.585 204.716V203.076H593.225V204.716H591.585ZM591.585 203.076V201.435H593.225V203.076H591.585ZM591.585 201.435V199.795H593.225V201.435H591.585ZM591.585 199.795V198.155H593.225V199.795H591.585ZM591.585 198.155V196.514H593.225V198.155H591.585ZM591.585 196.514V194.874H593.225V196.514H591.585ZM591.585 194.874V193.234H593.225V194.874H591.585ZM589.945 194.874V193.234H591.585V194.874H589.945ZM589.945 193.234V191.593H591.585V193.234H589.945ZM591.585 193.234V191.593H593.225V193.234H591.585ZM588.304 193.234V191.593H589.945V193.234H588.304ZM586.664 193.234V191.593H588.304V193.234H586.664ZM585.024 193.234V191.593H586.664V193.234H585.024ZM583.383 193.234V191.593H585.024V193.234H583.383ZM585.024 194.874V193.234H586.664V194.874H585.024ZM585.024 196.514V194.874H586.664V196.514H585.024ZM585.024 198.155V196.514H586.664V198.155H585.024ZM585.024 199.795V198.155H586.664V199.795H585.024ZM585.024 201.435V199.795H586.664V201.435H585.024ZM585.024 203.076V201.435H586.664V203.076H585.024ZM585.024 204.716V203.076H586.664V204.716H585.024ZM585.024 206.356V204.716H586.664V206.356H585.024ZM585.024 207.996V206.356H586.664V207.996H585.024ZM586.664 207.996V206.356H588.304V207.996H586.664ZM588.304 207.996V206.356H589.945V207.996H588.304ZM589.945 207.996V206.356H591.585V207.996H589.945ZM589.945 206.356V204.716H591.585V206.356H589.945ZM589.945 204.716V203.076H591.585V204.716H589.945ZM589.945 203.076V201.435H591.585V203.076H589.945ZM589.945 201.435V199.795H591.585V201.435H589.945ZM589.945 199.795V198.155H591.585V199.795H589.945ZM589.945 198.155V196.514H591.585V198.155H589.945ZM589.945 196.514V194.874H591.585V196.514H589.945ZM588.304 194.874V193.234H589.945V194.874H588.304ZM586.664 194.874V193.234H588.304V194.874H586.664ZM586.664 196.514V194.874H588.304V196.514H586.664ZM586.664 198.155V196.514H588.304V198.155H586.664ZM586.664 199.795V198.155H588.304V199.795H586.664ZM586.664 201.435V199.795H588.304V201.435H586.664ZM588.304 201.435V199.795H589.945V201.435H588.304ZM588.304 203.076V201.435H589.945V203.076H588.304ZM588.304 204.716V203.076H589.945V204.716H588.304ZM588.304 206.356V204.716H589.945V206.356H588.304ZM586.664 206.356V204.716H588.304V206.356H586.664ZM586.664 204.716V203.076H588.304V204.716H586.664ZM586.664 203.076V201.435H588.304V203.076H586.664ZM588.304 198.155V196.514H589.945V198.155H588.304ZM588.304 196.514V194.874H589.945V196.514H588.304ZM588.304 199.795V198.155H589.945V199.795H588.304ZM573.541 194.874V193.234H575.182V194.874H573.541ZM571.901 194.874V193.234H573.541V194.874H571.901ZM570.261 194.874V193.234H571.901V194.874H570.261ZM568.621 194.874V193.234H570.261V194.874H568.621ZM566.98 194.874V193.234H568.621V194.874H566.98ZM566.98 193.234V191.593H568.621V193.234H566.98ZM568.621 193.234V191.593H570.261V193.234H568.621ZM570.261 193.234V191.593H571.901V193.234H570.261ZM571.901 193.234V191.593H573.541V193.234H571.901ZM573.541 193.234V191.593H575.182V193.234H573.541ZM575.182 193.234V191.593H576.822V193.234H575.182ZM575.182 191.593V189.953H576.822V191.593H575.182ZM573.541 191.593V189.953H575.182V191.593H573.541ZM571.901 191.593V189.953H573.541V191.593H571.901ZM570.261 191.593V189.953H571.901V191.593H570.261ZM570.261 189.953V188.313H571.901V189.953H570.261ZM568.621 189.953V188.313H570.261V189.953H568.621ZM568.621 191.593V189.953H570.261V191.593H568.621ZM570.261 188.313V186.672H571.901V188.313H570.261ZM571.901 188.313V186.672H573.541V188.313H571.901ZM571.901 189.953V188.313H573.541V189.953H571.901ZM573.541 189.953V188.313H575.182V189.953H573.541ZM573.541 188.313V186.672H575.182V188.313H573.541ZM573.541 186.672V185.032H575.182V186.672H573.541ZM575.182 186.672V185.032H576.822V186.672H575.182ZM576.822 186.672V185.032H578.462V186.672H576.822ZM578.462 186.672V185.032H580.103V186.672H578.462ZM580.103 186.672V185.032H581.743V186.672H580.103ZM581.743 186.672V185.032H583.383V186.672H581.743ZM583.383 186.672V185.032H585.024V186.672H583.383ZM585.024 186.672V185.032H586.664V186.672H585.024ZM583.383 188.313V186.672H585.024V188.313H583.383ZM581.743 188.313V186.672H583.383V188.313H581.743ZM580.103 188.313V186.672H581.743V188.313H580.103ZM578.462 188.313V186.672H580.103V188.313H578.462ZM576.822 188.313V186.672H578.462V188.313H576.822ZM575.182 188.313V186.672H576.822V188.313H575.182ZM575.182 189.953V188.313H576.822V189.953H575.182ZM576.822 189.953V188.313H578.462V189.953H576.822ZM578.462 189.953V188.313H580.103V189.953H578.462ZM580.103 189.953V188.313H581.743V189.953H580.103ZM581.743 189.953V188.313H583.383V189.953H581.743ZM583.383 189.953V188.313H585.024V189.953H583.383ZM585.024 188.313V186.672H586.664V188.313H585.024ZM586.664 188.313V186.672H588.304V188.313H586.664ZM588.304 188.313V186.672H589.945V188.313H588.304ZM588.304 189.953V188.313H589.945V189.953H588.304ZM589.945 189.953V188.313H591.585V189.953H589.945ZM589.945 191.593V189.953H591.585V191.593H589.945ZM588.304 191.593V189.953H589.945V191.593H588.304ZM586.664 191.593V189.953H588.304V191.593H586.664ZM585.024 191.593V189.953H586.664V191.593H585.024ZM583.383 191.593V189.953H585.024V191.593H583.383ZM581.743 191.593V189.953H583.383V191.593H581.743ZM580.103 191.593V189.953H581.743V191.593H580.103ZM578.462 191.593V189.953H580.103V191.593H578.462ZM576.822 191.593V189.953H578.462V191.593H576.822ZM585.024 189.953V188.313H586.664V189.953H585.024ZM586.664 189.953V188.313H588.304V189.953H586.664ZM568.621 204.716V203.076H570.261V204.716H568.621ZM570.261 204.716V203.076H571.901V204.716H570.261ZM571.901 204.716V203.076H573.541V204.716H571.901ZM573.541 204.716V203.076H575.182V204.716H573.541ZM570.261 203.076V201.435H571.901V203.076H570.261ZM571.901 203.076V201.435H573.541V203.076H571.901ZM575.182 203.076V201.435H576.822V203.076H575.182ZM576.822 203.076V201.435H578.462V203.076H576.822ZM578.462 203.076V201.435H580.103V203.076H578.462ZM580.103 203.076V201.435H581.743V203.076H580.103ZM581.743 203.076V201.435H583.383V203.076H581.743ZM583.383 203.076V201.435H585.024V203.076H583.383ZM573.541 203.076V201.435H575.182V203.076H573.541ZM568.621 203.076V201.435H570.261V203.076H568.621ZM570.261 201.435V199.795H571.901V201.435H570.261ZM571.901 201.435V199.795H573.541V201.435H571.901ZM573.541 201.435V199.795H575.182V201.435H573.541ZM575.182 201.435V199.795H576.822V201.435H575.182ZM576.822 201.435V199.795H578.462V201.435H576.822ZM578.462 201.435V199.795H580.103V201.435H578.462ZM580.103 201.435V199.795H581.743V201.435H580.103ZM581.743 201.435V199.795H583.383V201.435H581.743ZM583.383 201.435V199.795H585.024V201.435H583.383ZM583.383 199.795V198.155H585.024V199.795H583.383ZM581.743 199.795V198.155H583.383V199.795H581.743ZM580.103 199.795V198.155H581.743V199.795H580.103ZM576.822 199.795V198.155H578.462V199.795H576.822ZM575.182 199.795V198.155H576.822V199.795H575.182ZM573.541 199.795V198.155H575.182V199.795H573.541ZM578.462 199.795V198.155H580.103V199.795H578.462ZM593.225 209.637V211.277H591.585V209.637H593.225ZM593.225 211.277V212.917H591.585V211.277H593.225ZM593.225 212.917V214.558H591.585V212.917H593.225ZM593.225 214.558V216.198H591.585V214.558H593.225ZM591.585 214.558V216.198H589.945V214.558H591.585ZM591.585 212.917V214.558H589.945V212.917H591.585ZM589.945 214.558V216.198H588.304V214.558H589.945ZM588.304 214.558V216.198H586.664V214.558H588.304ZM586.664 214.558V216.198H585.024V214.558H586.664ZM585.024 207.996V209.637H583.383V207.996H585.024ZM573.541 214.558V216.198H571.901V214.558H573.541ZM576.822 203.076V204.716H575.182V203.076H576.822ZM601.457 214.558V216.198H599.817V214.558H601.457ZM601.457 212.917V214.558H599.817V212.917H601.457ZM601.457 211.277V212.917H599.817V211.277H601.457ZM601.457 209.637V211.277H599.817V209.637H601.457ZM601.457 207.996V209.637H599.817V207.996H601.457ZM601.457 206.356V207.996H599.817V206.356H601.457ZM601.457 204.716V206.356H599.817V204.716H601.457ZM601.457 203.076V204.716H599.817V203.076H601.457ZM601.457 201.435V203.076H599.817V201.435H601.457ZM601.457 199.795V201.435H599.817V199.795H601.457ZM601.457 198.155V199.795H599.817V198.155H601.457ZM601.457 196.514V198.155H599.817V196.514H601.457ZM601.457 194.874V196.514H599.817V194.874H601.457ZM601.457 193.234V194.874H599.817V193.234H601.457ZM601.457 191.593V193.234H599.817V191.593H601.457ZM603.097 191.593V193.234H601.457V191.593H603.097ZM603.097 193.234V194.874H601.457V193.234H603.097ZM603.097 194.874V196.514H601.457V194.874H603.097ZM603.097 196.514V198.155H601.457V196.514H603.097ZM603.097 198.155V199.795H601.457V198.155H603.097ZM603.097 199.795V201.435H601.457V199.795H603.097ZM603.097 201.435V203.076H601.457V201.435H603.097ZM604.738 203.076V204.716H603.097V203.076H604.738ZM604.738 204.716V206.356H603.097V204.716H604.738ZM604.738 206.356V207.996H603.097V206.356H604.738ZM604.738 207.996V209.637H603.097V207.996H604.738ZM604.738 209.637V211.277H603.097V209.637H604.738ZM604.738 211.277V212.917H603.097V211.277H604.738ZM604.738 212.917V214.558H603.097V212.917H604.738ZM604.738 214.558V216.198H603.097V214.558H604.738ZM606.378 214.558V216.198H604.738V214.558H606.378ZM608.018 214.558V216.198H606.378V214.558H608.018ZM608.018 212.917V214.558H606.378V212.917H608.018ZM608.018 211.277V212.917H606.378V211.277H608.018ZM608.018 209.637V211.277H606.378V209.637H608.018ZM608.018 207.996V209.637H606.378V207.996H608.018ZM608.018 206.356V207.996H606.378V206.356H608.018ZM608.018 204.716V206.356H606.378V204.716H608.018ZM608.018 203.076V204.716H606.378V203.076H608.018ZM606.378 203.076V204.716H604.738V203.076H606.378ZM606.378 201.435V203.076H604.738V201.435H606.378ZM606.378 204.716V206.356H604.738V204.716H606.378ZM606.378 206.356V207.996H604.738V206.356H606.378ZM606.378 207.996V209.637H604.738V207.996H606.378ZM606.378 209.637V211.277H604.738V209.637H606.378ZM606.378 211.277V212.917H604.738V211.277H606.378ZM606.378 212.917V214.558H604.738V212.917H606.378ZM603.097 214.558V216.198H601.457V214.558H603.097ZM603.097 212.917V214.558H601.457V212.917H603.097ZM603.097 211.277V212.917H601.457V211.277H603.097ZM603.097 209.637V211.277H601.457V209.637H603.097ZM603.097 207.996V209.637H601.457V207.996H603.097ZM603.097 206.356V207.996H601.457V206.356H603.097ZM603.097 204.716V206.356H601.457V204.716H603.097ZM603.097 203.076V204.716H601.457V203.076H603.097ZM601.457 185.032V186.672H599.817V185.032H601.457ZM601.457 186.672V188.313H599.817V186.672H601.457ZM601.457 188.313V189.953H599.817V188.313H601.457ZM601.457 189.953V191.593H599.817V189.953H601.457ZM606.378 186.672V188.313H604.738V186.672H606.378ZM606.378 188.313V189.953H604.738V188.313H606.378ZM606.378 189.953V191.593H604.738V189.953H606.378ZM606.378 191.593V193.234H604.738V191.593H606.378ZM606.378 193.234V194.874H604.738V193.234H606.378ZM606.378 194.874V196.514H604.738V194.874H606.378ZM606.378 196.514V198.155H604.738V196.514H606.378ZM608.018 198.155V199.795H606.378V198.155H608.018ZM608.018 199.795V201.435H606.378V199.795H608.018ZM608.018 201.435V203.076H606.378V201.435H608.018ZM608.018 196.514V198.155H606.378V196.514H608.018ZM608.018 194.874V196.514H606.378V194.874H608.018ZM608.018 193.234V194.874H606.378V193.234H608.018ZM608.018 191.593V193.234H606.378V191.593H608.018ZM608.018 189.953V191.593H606.378V189.953H608.018ZM608.018 188.313V189.953H606.378V188.313H608.018ZM608.018 186.672V188.313H606.378V186.672H608.018ZM608.018 185.032V186.672H606.378V185.032H608.018ZM606.378 185.032V186.672H604.738V185.032H606.378ZM604.738 185.032V186.672H603.097V185.032H604.738ZM604.738 186.672V188.313H603.097V186.672H604.738ZM603.097 188.313V189.953H601.457V188.313H603.097ZM603.097 189.953V191.593H601.457V189.953H603.097ZM603.097 186.672V188.313H601.457V186.672H603.097ZM603.097 185.032V186.672H601.457V185.032H603.097ZM604.738 188.313V189.953H603.097V188.313H604.738ZM604.738 189.953V191.593H603.097V189.953H604.738ZM604.738 191.593V193.234H603.097V191.593H604.738ZM604.738 193.234V194.874H603.097V193.234H604.738ZM604.738 194.874V196.514H603.097V194.874H604.738ZM604.738 196.514V198.155H603.097V196.514H604.738ZM604.738 198.155V199.795H603.097V198.155H604.738ZM604.738 199.795V201.435H603.097V199.795H604.738ZM604.738 201.435V203.076H603.097V201.435H604.738ZM606.378 199.795V201.435H604.738V199.795H606.378ZM606.378 198.155V199.795H604.738V198.155H606.378ZM619.501 214.558V216.198H617.86V214.558H619.501ZM621.141 214.558V216.198H619.501V214.558H621.141ZM622.781 214.558V216.198H621.141V214.558H622.781ZM624.422 214.558V216.198H622.781V214.558H624.422ZM626.062 212.917V214.558H624.422V212.917H626.062ZM626.062 211.277V212.917H624.422V211.277H626.062ZM626.062 214.558V216.198H624.422V214.558H626.062ZM624.422 212.917V214.558H622.781V212.917H624.422ZM622.781 212.917V214.558H621.141V212.917H622.781ZM621.141 212.917V214.558H619.501V212.917H621.141ZM619.501 212.917V214.558H617.86V212.917H619.501ZM619.501 211.277V212.917H617.86V211.277H619.501ZM619.501 209.637V211.277H617.86V209.637H619.501ZM621.141 209.637V211.277H619.501V209.637H621.141ZM622.781 209.637V211.277H621.141V209.637H622.781ZM624.422 209.637V211.277H622.781V209.637H624.422ZM626.062 209.637V211.277H624.422V209.637H626.062ZM624.422 211.277V212.917H622.781V211.277H624.422ZM622.781 211.277V212.917H621.141V211.277H622.781ZM621.141 211.277V212.917H619.501V211.277H621.141ZM626.062 191.593V193.234H624.422V191.593H626.062ZM624.422 191.593V193.234H622.781V191.593H624.422ZM621.141 191.593V193.234H619.501V191.593H621.141ZM621.141 193.234V194.874H619.501V193.234H621.141ZM621.141 194.874V196.514H619.501V194.874H621.141ZM619.501 196.514V198.155H617.86V196.514H619.501ZM619.501 198.155V199.795H617.86V198.155H619.501ZM619.501 199.795V201.435H617.86V199.795H619.501ZM619.501 201.435V203.076H617.86V201.435H619.501ZM619.501 203.076V204.716H617.86V203.076H619.501ZM619.501 204.716V206.356H617.86V204.716H619.501ZM619.501 206.356V207.996H617.86V206.356H619.501ZM619.501 207.996V209.637H617.86V207.996H619.501ZM621.141 207.996V209.637H619.501V207.996H621.141ZM622.781 207.996V209.637H621.141V207.996H622.781ZM624.422 207.996V209.637H622.781V207.996H624.422ZM626.062 207.996V209.637H624.422V207.996H626.062ZM626.062 206.356V207.996H624.422V206.356H626.062ZM626.062 203.076V204.716H624.422V203.076H626.062ZM626.062 201.435V203.076H624.422V201.435H626.062ZM626.062 199.795V201.435H624.422V199.795H626.062ZM626.062 198.155V199.795H624.422V198.155H626.062ZM626.062 196.514V198.155H624.422V196.514H626.062ZM626.062 194.874V196.514H624.422V194.874H626.062ZM626.062 193.234V194.874H624.422V193.234H626.062ZM624.422 199.795V201.435H622.781V199.795H624.422ZM624.422 203.076V204.716H622.781V203.076H624.422ZM624.422 204.716V206.356H622.781V204.716H624.422ZM624.422 206.356V207.996H622.781V206.356H624.422ZM626.062 204.716V206.356H624.422V204.716H626.062ZM624.422 196.514V198.155H622.781V196.514H624.422ZM622.781 196.514V198.155H621.141V196.514H622.781ZM621.141 196.514V198.155H619.501V196.514H621.141ZM621.141 198.155V199.795H619.501V198.155H621.141ZM621.141 199.795V201.435H619.501V199.795H621.141ZM621.141 201.435V203.076H619.501V201.435H621.141ZM621.141 203.076V204.716H619.501V203.076H621.141ZM621.141 204.716V206.356H619.501V204.716H621.141ZM621.141 206.356V207.996H619.501V206.356H621.141ZM622.781 206.356V207.996H621.141V206.356H622.781ZM622.781 204.716V206.356H621.141V204.716H622.781ZM622.781 203.076V204.716H621.141V203.076H622.781ZM622.781 201.435V203.076H621.141V201.435H622.781ZM622.781 199.795V201.435H621.141V199.795H622.781ZM622.781 198.155V199.795H621.141V198.155H622.781ZM624.422 198.155V199.795H622.781V198.155H624.422ZM624.422 201.435V203.076H622.781V201.435H624.422ZM624.422 194.874V196.514H622.781V194.874H624.422ZM624.422 193.234V194.874H622.781V193.234H624.422ZM622.781 193.234V194.874H621.141V193.234H622.781ZM622.781 194.874V196.514H621.141V194.874H622.781ZM619.501 194.874V196.514H617.86V194.874H619.501ZM619.501 193.234V194.874H617.86V193.234H619.501ZM619.501 191.593V193.234H617.86V191.593H619.501ZM622.781 191.593V193.234H621.141V191.593H622.781ZM619.501 185.032V186.672H617.86V185.032H619.501ZM619.501 186.672V188.313H617.86V186.672H619.501ZM621.141 186.672V188.313H619.501V186.672H621.141ZM622.781 186.672V188.313H621.141V186.672H622.781ZM622.781 188.313V189.953H621.141V188.313H622.781ZM624.422 188.313V189.953H622.781V188.313H624.422ZM624.422 189.953V191.593H622.781V189.953H624.422ZM622.781 189.953V191.593H621.141V189.953H622.781ZM621.141 189.953V191.593H619.501V189.953H621.141ZM621.141 188.313V189.953H619.501V188.313H621.141ZM619.501 188.313V189.953H617.86V188.313H619.501ZM617.86 188.313V189.953H616.22V188.313H617.86ZM617.86 189.953V191.593H616.22V189.953H617.86ZM619.501 189.953V191.593H617.86V189.953H619.501ZM617.86 191.593V193.234H616.22V191.593H617.86ZM616.22 189.953V191.593H614.58V189.953H616.22ZM616.22 188.313V189.953H614.58V188.313H616.22ZM616.22 186.672V188.313H614.58V186.672H616.22ZM616.22 185.032V186.672H614.58V185.032H616.22ZM617.86 185.032V186.672H616.22V185.032H617.86ZM617.86 186.672V188.313H616.22V186.672H617.86ZM614.58 185.032V186.672H612.939V185.032H614.58ZM614.58 186.672V188.313H612.939V186.672H614.58ZM614.58 188.313V189.953H612.939V188.313H614.58ZM614.58 189.953V191.593H612.939V189.953H614.58ZM612.939 185.032V186.672H611.299V185.032H612.939ZM612.939 186.672V188.313H611.299V186.672H612.939ZM611.299 186.672V188.313H609.659V186.672H611.299ZM611.299 188.313V189.953H609.659V188.313H611.299ZM609.659 188.313V189.953H608.018V188.313H609.659ZM609.659 189.953V191.593H608.018V189.953H609.659ZM611.299 189.953V191.593H609.659V189.953H611.299ZM612.939 189.953V191.593H611.299V189.953H612.939ZM612.939 188.313V189.953H611.299V188.313H612.939ZM609.659 191.593V193.234H608.018V191.593H609.659ZM611.299 185.032V186.672H609.659V185.032H611.299ZM609.659 186.672V188.313H608.018V186.672H609.659ZM632.654 214.558V216.198H631.013V214.558H632.654ZM632.654 212.917V214.558H631.013V212.917H632.654ZM632.654 211.277V212.917H631.013V211.277H632.654ZM632.654 209.637V211.277H631.013V209.637H632.654ZM632.654 207.996V209.637H631.013V207.996H632.654ZM632.654 206.356V207.996H631.013V206.356H632.654ZM632.654 204.716V206.356H631.013V204.716H632.654ZM632.654 203.076V204.716H631.013V203.076H632.654ZM632.654 201.435V203.076H631.013V201.435H632.654ZM632.654 199.795V201.435H631.013V199.795H632.654ZM632.654 198.155V199.795H631.013V198.155H632.654ZM632.654 196.514V198.155H631.013V196.514H632.654ZM632.654 194.874V196.514H631.013V194.874H632.654ZM632.654 193.234V194.874H631.013V193.234H632.654ZM632.654 191.593V193.234H631.013V191.593H632.654ZM634.294 191.593V193.234H632.654V191.593H634.294ZM634.294 193.234V194.874H632.654V193.234H634.294ZM634.294 194.874V196.514H632.654V194.874H634.294ZM634.294 196.514V198.155H632.654V196.514H634.294ZM634.294 198.155V199.795H632.654V198.155H634.294ZM634.294 199.795V201.435H632.654V199.795H634.294ZM634.294 201.435V203.076H632.654V201.435H634.294ZM635.934 203.076V204.716H634.294V203.076H635.934ZM635.934 204.716V206.356H634.294V204.716H635.934ZM635.934 206.356V207.996H634.294V206.356H635.934ZM635.934 207.996V209.637H634.294V207.996H635.934ZM635.934 209.637V211.277H634.294V209.637H635.934ZM635.934 211.277V212.917H634.294V211.277H635.934ZM635.934 212.917V214.558H634.294V212.917H635.934ZM635.934 214.558V216.198H634.294V214.558H635.934ZM637.574 214.558V216.198H635.934V214.558H637.574ZM639.215 214.558V216.198H637.574V214.558H639.215ZM639.215 212.917V214.558H637.574V212.917H639.215ZM639.215 211.277V212.917H637.574V211.277H639.215ZM639.215 209.637V211.277H637.574V209.637H639.215ZM639.215 207.996V209.637H637.574V207.996H639.215ZM639.215 206.356V207.996H637.574V206.356H639.215ZM639.215 204.716V206.356H637.574V204.716H639.215ZM639.215 203.076V204.716H637.574V203.076H639.215ZM637.574 203.076V204.716H635.934V203.076H637.574ZM637.574 201.435V203.076H635.934V201.435H637.574ZM637.574 204.716V206.356H635.934V204.716H637.574ZM637.574 206.356V207.996H635.934V206.356H637.574ZM637.574 207.996V209.637H635.934V207.996H637.574ZM637.574 209.637V211.277H635.934V209.637H637.574ZM637.574 211.277V212.917H635.934V211.277H637.574ZM637.574 212.917V214.558H635.934V212.917H637.574ZM634.294 214.558V216.198H632.654V214.558H634.294ZM634.294 212.917V214.558H632.654V212.917H634.294ZM634.294 211.277V212.917H632.654V211.277H634.294ZM634.294 209.637V211.277H632.654V209.637H634.294ZM634.294 207.996V209.637H632.654V207.996H634.294ZM634.294 206.356V207.996H632.654V206.356H634.294ZM634.294 204.716V206.356H632.654V204.716H634.294ZM634.294 203.076V204.716H632.654V203.076H634.294ZM632.654 185.032V186.672H631.013V185.032H632.654ZM632.654 186.672V188.313H631.013V186.672H632.654ZM632.654 188.313V189.953H631.013V188.313H632.654ZM632.654 189.953V191.593H631.013V189.953H632.654ZM637.574 186.672V188.313H635.934V186.672H637.574ZM637.574 188.313V189.953H635.934V188.313H637.574ZM637.574 189.953V191.593H635.934V189.953H637.574ZM637.574 191.593V193.234H635.934V191.593H637.574ZM637.574 193.234V194.874H635.934V193.234H637.574ZM637.574 194.874V196.514H635.934V194.874H637.574ZM637.574 196.514V198.155H635.934V196.514H637.574ZM639.215 198.155V199.795H637.574V198.155H639.215ZM639.215 199.795V201.435H637.574V199.795H639.215ZM639.215 201.435V203.076H637.574V201.435H639.215ZM639.215 196.514V198.155H637.574V196.514H639.215ZM639.215 194.874V196.514H637.574V194.874H639.215ZM639.215 193.234V194.874H637.574V193.234H639.215ZM639.215 191.593V193.234H637.574V191.593H639.215ZM639.215 189.953V191.593H637.574V189.953H639.215ZM639.215 188.313V189.953H637.574V188.313H639.215ZM639.215 186.672V188.313H637.574V186.672H639.215ZM639.215 185.032V186.672H637.574V185.032H639.215ZM637.574 185.032V186.672H635.934V185.032H637.574ZM635.934 185.032V186.672H634.294V185.032H635.934ZM635.934 186.672V188.313H634.294V186.672H635.934ZM634.294 188.313V189.953H632.654V188.313H634.294ZM634.294 189.953V191.593H632.654V189.953H634.294ZM634.294 186.672V188.313H632.654V186.672H634.294ZM634.294 185.032V186.672H632.654V185.032H634.294ZM635.934 188.313V189.953H634.294V188.313H635.934ZM635.934 189.953V191.593H634.294V189.953H635.934ZM635.934 191.593V193.234H634.294V191.593H635.934ZM635.934 193.234V194.874H634.294V193.234H635.934ZM635.934 194.874V196.514H634.294V194.874H635.934ZM635.934 196.514V198.155H634.294V196.514H635.934ZM635.934 198.155V199.795H634.294V198.155H635.934ZM635.934 199.795V201.435H634.294V199.795H635.934ZM635.934 201.435V203.076H634.294V201.435H635.934ZM637.574 199.795V201.435H635.934V199.795H637.574ZM637.574 198.155V199.795H635.934V198.155H637.574ZM650.697 191.593V193.234H649.057V191.593H650.697ZM650.697 185.032V186.672H649.057V185.032H650.697ZM650.697 186.672V188.313H649.057V186.672H650.697ZM652.337 186.672V188.313H650.697V186.672H652.337ZM653.978 188.313V189.953H652.337V188.313H653.978ZM652.337 189.953V191.593H650.697V189.953H652.337ZM652.337 188.313V189.953H650.697V188.313H652.337ZM650.697 188.313V189.953H649.057V188.313H650.697ZM649.057 188.313V189.953H647.416V188.313H649.057ZM649.057 189.953V191.593H647.416V189.953H649.057ZM650.697 189.953V191.593H649.057V189.953H650.697ZM649.057 191.593V193.234H647.416V191.593H649.057ZM647.416 189.953V191.593H645.776V189.953H647.416ZM647.416 188.313V189.953H645.776V188.313H647.416ZM647.416 186.672V188.313H645.776V186.672H647.416ZM647.416 185.032V186.672H645.776V185.032H647.416ZM649.057 185.032V186.672H647.416V185.032H649.057ZM649.057 186.672V188.313H647.416V186.672H649.057ZM645.776 185.032V186.672H644.136V185.032H645.776ZM645.776 186.672V188.313H644.136V186.672H645.776ZM645.776 188.313V189.953H644.136V188.313H645.776ZM645.776 189.953V191.593H644.136V189.953H645.776ZM644.136 185.032V186.672H642.495V185.032H644.136ZM644.136 186.672V188.313H642.495V186.672H644.136ZM642.495 186.672V188.313H640.855V186.672H642.495ZM642.495 188.313V189.953H640.855V188.313H642.495ZM640.855 188.313V189.953H639.215V188.313H640.855ZM640.855 189.953V191.593H639.215V189.953H640.855ZM642.495 189.953V191.593H640.855V189.953H642.495ZM644.136 189.953V191.593H642.495V189.953H644.136ZM644.136 188.313V189.953H642.495V188.313H644.136ZM640.855 191.593V193.234H639.215V191.593H640.855ZM642.495 185.032V186.672H640.855V185.032H642.495ZM640.855 186.672V188.313H639.215V186.672H640.855ZM647.416 191.593V193.234H645.776V191.593H647.416ZM649.057 193.234V194.874H647.416V193.234H649.057ZM660.564 175.19V176.831H658.924V175.19H660.564ZM660.564 176.831V178.471H658.924V176.831H660.564ZM660.564 178.471V180.111H658.924V178.471H660.564ZM660.564 180.111V181.751H658.924V180.111H660.564ZM665.485 175.19V176.831H663.845V175.19H665.485ZM665.485 176.831V178.471H663.845V176.831H665.485ZM665.485 178.471V180.111H663.845V178.471H665.485ZM665.485 180.111V181.751H663.845V180.111H665.485ZM667.126 180.111V181.751H665.485V180.111H667.126ZM667.126 178.471V180.111H665.485V178.471H667.126ZM667.126 176.831V178.471H665.485V176.831H667.126ZM667.126 175.19V176.831H665.485V175.19H667.126ZM663.845 175.19V176.831H662.205V175.19H663.845ZM662.205 175.19V176.831H660.564V175.19H662.205ZM662.205 176.831V178.471H660.564V176.831H662.205ZM663.845 176.831V178.471H662.205V176.831H663.845ZM663.845 178.471V180.111H662.205V178.471H663.845ZM663.845 180.111V181.751H662.205V180.111H663.845ZM662.205 180.111V181.751H660.564V180.111H662.205ZM662.205 178.471V180.111H660.564V178.471H662.205ZM660.564 214.558V216.198H658.924V214.558H660.564ZM660.564 212.917V214.558H658.924V212.917H660.564ZM660.564 211.277V212.917H658.924V211.277H660.564ZM660.564 209.637V211.277H658.924V209.637H660.564ZM660.564 207.996V209.637H658.924V207.996H660.564ZM660.564 206.356V207.996H658.924V206.356H660.564ZM660.564 204.716V206.356H658.924V204.716H660.564ZM660.564 203.076V204.716H658.924V203.076H660.564ZM660.564 201.435V203.076H658.924V201.435H660.564ZM660.564 199.795V201.435H658.924V199.795H660.564ZM660.564 198.155V199.795H658.924V198.155H660.564ZM660.564 196.514V198.155H658.924V196.514H660.564ZM660.564 194.874V196.514H658.924V194.874H660.564ZM660.564 193.234V194.874H658.924V193.234H660.564ZM660.564 191.593V193.234H658.924V191.593H660.564ZM662.205 191.593V193.234H660.564V191.593H662.205ZM662.205 193.234V194.874H660.564V193.234H662.205ZM662.205 194.874V196.514H660.564V194.874H662.205ZM662.205 196.514V198.155H660.564V196.514H662.205ZM662.205 198.155V199.795H660.564V198.155H662.205ZM662.205 199.795V201.435H660.564V199.795H662.205ZM662.205 201.435V203.076H660.564V201.435H662.205ZM663.845 203.076V204.716H662.205V203.076H663.845ZM663.845 204.716V206.356H662.205V204.716H663.845ZM663.845 206.356V207.996H662.205V206.356H663.845ZM663.845 207.996V209.637H662.205V207.996H663.845ZM663.845 209.637V211.277H662.205V209.637H663.845ZM663.845 211.277V212.917H662.205V211.277H663.845ZM663.845 212.917V214.558H662.205V212.917H663.845ZM663.845 214.558V216.198H662.205V214.558H663.845ZM665.485 214.558V216.198H663.845V214.558H665.485ZM667.126 214.558V216.198H665.485V214.558H667.126ZM667.126 212.917V214.558H665.485V212.917H667.126ZM667.126 211.277V212.917H665.485V211.277H667.126ZM667.126 209.637V211.277H665.485V209.637H667.126ZM667.126 207.996V209.637H665.485V207.996H667.126ZM667.126 206.356V207.996H665.485V206.356H667.126ZM667.126 204.716V206.356H665.485V204.716H667.126ZM667.126 203.076V204.716H665.485V203.076H667.126ZM665.485 203.076V204.716H663.845V203.076H665.485ZM665.485 201.435V203.076H663.845V201.435H665.485ZM665.485 204.716V206.356H663.845V204.716H665.485ZM665.485 206.356V207.996H663.845V206.356H665.485ZM665.485 207.996V209.637H663.845V207.996H665.485ZM665.485 209.637V211.277H663.845V209.637H665.485ZM665.485 211.277V212.917H663.845V211.277H665.485ZM665.485 212.917V214.558H663.845V212.917H665.485ZM662.205 214.558V216.198H660.564V214.558H662.205ZM662.205 212.917V214.558H660.564V212.917H662.205ZM662.205 211.277V212.917H660.564V211.277H662.205ZM662.205 209.637V211.277H660.564V209.637H662.205ZM662.205 207.996V209.637H660.564V207.996H662.205ZM662.205 206.356V207.996H660.564V206.356H662.205ZM662.205 204.716V206.356H660.564V204.716H662.205ZM662.205 203.076V204.716H660.564V203.076H662.205ZM660.564 188.313V189.953H658.924V188.313H660.564ZM660.564 189.953V191.593H658.924V189.953H660.564ZM665.485 188.313V189.953H663.845V188.313H665.485ZM665.485 189.953V191.593H663.845V189.953H665.485ZM665.485 191.593V193.234H663.845V191.593H665.485ZM665.485 193.234V194.874H663.845V193.234H665.485ZM665.485 194.874V196.514H663.845V194.874H665.485ZM665.485 196.514V198.155H663.845V196.514H665.485ZM667.126 198.155V199.795H665.485V198.155H667.126ZM667.126 199.795V201.435H665.485V199.795H667.126ZM667.126 201.435V203.076H665.485V201.435H667.126ZM667.126 196.514V198.155H665.485V196.514H667.126ZM667.126 194.874V196.514H665.485V194.874H667.126ZM667.126 193.234V194.874H665.485V193.234H667.126ZM667.126 191.593V193.234H665.485V191.593H667.126ZM667.126 189.953V191.593H665.485V189.953H667.126ZM667.126 188.313V189.953H665.485V188.313H667.126ZM662.205 188.313V189.953H660.564V188.313H662.205ZM662.205 189.953V191.593H660.564V189.953H662.205ZM663.845 188.313V189.953H662.205V188.313H663.845ZM663.845 189.953V191.593H662.205V189.953H663.845ZM663.845 191.593V193.234H662.205V191.593H663.845ZM663.845 193.234V194.874H662.205V193.234H663.845ZM663.845 194.874V196.514H662.205V194.874H663.845ZM663.845 196.514V198.155H662.205V196.514H663.845ZM663.845 198.155V199.795H662.205V198.155H663.845ZM663.845 199.795V201.435H662.205V199.795H663.845ZM663.845 201.435V203.076H662.205V201.435H663.845ZM665.485 199.795V201.435H663.845V199.795H665.485ZM665.485 198.155V199.795H663.845V198.155H665.485ZM660.564 216.198V217.838H658.924V216.198H660.564ZM658.924 217.838V219.479H657.284V217.838H658.924ZM657.284 219.479V221.119H655.643V219.479H657.284ZM655.643 219.479V221.119H654.003V219.479H655.643ZM655.643 221.119V222.759H654.003V221.119H655.643ZM657.284 221.119V222.759H655.643V221.119H657.284ZM658.924 221.119V222.759H657.284V221.119H658.924ZM658.924 219.479V221.119H657.284V219.479H658.924ZM660.564 219.479V221.119H658.924V219.479H660.564ZM660.564 217.838V219.479H658.924V217.838H660.564ZM662.205 217.838V219.479H660.564V217.838H662.205ZM662.205 216.198V217.838H660.564V216.198H662.205ZM663.845 216.198V217.838H662.205V216.198H663.845ZM665.485 216.198V217.838H663.845V216.198H665.485ZM667.126 216.198V217.838H665.485V216.198H667.126ZM655.643 222.759V224.4H654.003V222.759H655.643ZM655.643 224.4V226.04H654.003V224.4H655.643ZM657.284 224.4V226.04H655.643V224.4H657.284ZM658.924 224.4V226.04H657.284V224.4H658.924ZM660.564 224.4V226.04H658.924V224.4H660.564ZM662.205 222.759V224.4H660.564V222.759H662.205ZM662.205 221.119V222.759H660.564V221.119H662.205ZM662.205 219.479V221.119H660.564V219.479H662.205ZM660.564 221.119V222.759H658.924V221.119H660.564ZM660.564 222.759V224.4H658.924V222.759H660.564ZM658.924 222.759V224.4H657.284V222.759H658.924ZM657.284 222.759V224.4H655.643V222.759H657.284ZM663.845 222.759V224.4H662.205V222.759H663.845ZM665.485 221.119V222.759H663.845V221.119H665.485ZM667.126 217.838V219.479H665.485V217.838H667.126ZM665.485 217.838V219.479H663.845V217.838H665.485ZM665.485 219.479V221.119H663.845V219.479H665.485ZM663.845 219.479V221.119H662.205V219.479H663.845ZM663.845 221.119V222.759H662.205V221.119H663.845ZM663.845 217.838V219.479H662.205V217.838H663.845ZM660.564 186.672V188.313H658.924V186.672H660.564ZM662.205 186.672V188.313H660.564V186.672H662.205ZM663.845 186.672V188.313H662.205V186.672H663.845ZM665.485 186.672V188.313H663.845V186.672H665.485ZM667.126 186.672V188.313H665.485V186.672H667.126ZM696.667 191.593V193.234H695.027V191.593H696.667ZM695.027 191.593V193.234H693.387V191.593H695.027ZM693.387 191.593V193.234H691.746V191.593H693.387ZM691.746 191.593V193.234H690.106V191.593H691.746ZM690.106 189.953V191.593H688.466V189.953H690.106ZM691.746 189.953V191.593H690.106V189.953H691.746ZM693.387 189.953V191.593H691.746V189.953H693.387ZM695.027 189.953V191.593H693.387V189.953H695.027ZM696.667 189.953V191.593H695.027V189.953H696.667ZM696.667 188.313V189.953H695.027V188.313H696.667ZM695.027 188.313V189.953H693.387V188.313H695.027ZM693.387 188.313V189.953H691.746V188.313H693.387ZM691.746 188.313V189.953H690.106V188.313H691.746ZM690.106 188.313V189.953H688.466V188.313H690.106ZM693.387 186.672V188.313H691.746V186.672H693.387ZM695.027 186.672V188.313H693.387V186.672H695.027ZM691.746 186.672V188.313H690.106V186.672H691.746ZM691.746 185.032V186.672H690.106V185.032H691.746ZM690.106 185.032V186.672H688.466V185.032H690.106ZM690.106 186.672V188.313H688.466V186.672H690.106ZM688.466 186.672V188.313H686.825V186.672H688.466ZM688.466 185.032V186.672H686.825V185.032H688.466ZM688.466 188.313V189.953H686.825V188.313H688.466ZM686.825 188.313V189.953H685.185V188.313H686.825ZM686.825 189.953V191.593H685.185V189.953H686.825ZM688.466 189.953V191.593H686.825V189.953H688.466ZM685.185 189.953V191.593H683.545V189.953H685.185ZM685.185 188.313V189.953H683.545V188.313H685.185ZM685.185 186.672V188.313H683.545V186.672H685.185ZM685.185 185.032V186.672H683.545V185.032H685.185ZM686.825 185.032V186.672H685.185V185.032H686.825ZM686.825 186.672V188.313H685.185V186.672H686.825ZM683.545 185.032V186.672H681.904V185.032H683.545ZM681.904 185.032V186.672H680.264V185.032H681.904ZM680.264 185.032V186.672H678.624V185.032H680.264ZM680.264 186.672V188.313H678.624V186.672H680.264ZM680.264 188.313V189.953H678.624V188.313H680.264ZM680.264 189.953V191.593H678.624V189.953H680.264ZM681.904 189.953V191.593H680.264V189.953H681.904ZM683.545 189.953V191.593H681.904V189.953H683.545ZM683.545 188.313V189.953H681.904V188.313H683.545ZM683.545 186.672V188.313H681.904V186.672H683.545ZM681.904 186.672V188.313H680.264V186.672H681.904ZM681.904 188.313V189.953H680.264V188.313H681.904ZM678.624 188.313V189.953H676.984V188.313H678.624ZM678.624 186.672V188.313H676.984V186.672H678.624ZM676.984 186.672V188.313H675.343V186.672H676.984ZM676.984 188.313V189.953H675.343V188.313H676.984ZM675.343 188.313V189.953H673.703V188.313H675.343ZM675.343 189.953V191.593H673.703V189.953H675.343ZM675.343 191.593V193.234H673.703V191.593H675.343ZM676.984 191.593V193.234H675.343V191.593H676.984ZM676.984 189.953V191.593H675.343V189.953H676.984ZM678.624 189.953V191.593H676.984V189.953H678.624ZM678.624 191.593V193.234H676.984V191.593H678.624ZM680.264 191.593V193.234H678.624V191.593H680.264ZM681.904 191.593V193.234H680.264V191.593H681.904ZM673.703 191.593V193.234H672.063V191.593H673.703ZM673.703 193.234V194.874H672.063V193.234H673.703ZM673.703 194.874V196.514H672.063V194.874H673.703ZM673.703 206.356V207.996H672.063V206.356H673.703ZM675.343 206.356V207.996H673.703V206.356H675.343ZM675.343 207.996V209.637H673.703V207.996H675.343ZM673.703 207.996V209.637H672.063V207.996H673.703ZM676.984 207.996V209.637H675.343V207.996H676.984ZM678.624 207.996V209.637H676.984V207.996H678.624ZM680.264 207.996V209.637H678.624V207.996H680.264ZM681.904 207.996V209.637H680.264V207.996H681.904ZM680.264 206.356V207.996H678.624V206.356H680.264ZM680.264 194.874V196.514H678.624V194.874H680.264ZM680.264 193.234V194.874H678.624V193.234H680.264ZM678.624 193.234V194.874H676.984V193.234H678.624ZM676.984 193.234V194.874H675.343V193.234H676.984ZM675.343 193.234V194.874H673.703V193.234H675.343ZM675.343 194.874V196.514H673.703V194.874H675.343ZM676.984 206.356V207.996H675.343V206.356H676.984ZM678.624 206.356V207.996H676.984V206.356H678.624ZM676.984 194.874V196.514H675.343V194.874H676.984ZM678.624 194.874V196.514H676.984V194.874H678.624ZM691.746 204.716V206.356H690.106V204.716H691.746ZM691.746 206.356V207.996H690.106V206.356H691.746ZM693.387 206.356V207.996H691.746V206.356H693.387ZM695.027 206.356V207.996H693.387V206.356H695.027ZM696.667 206.356V207.996H695.027V206.356H696.667ZM698.308 206.356V207.996H696.667V206.356H698.308ZM698.308 204.716V206.356H696.667V204.716H698.308ZM696.667 204.716V206.356H695.027V204.716H696.667ZM695.027 204.716V206.356H693.387V204.716H695.027ZM693.387 204.716V206.356H691.746V204.716H693.387ZM698.308 207.996V209.637H696.667V207.996H698.308ZM696.667 207.996V209.637H695.027V207.996H696.667ZM695.027 207.996V209.637H693.387V207.996H695.027ZM693.387 207.996V209.637H691.746V207.996H693.387ZM691.746 207.996V209.637H690.106V207.996H691.746ZM690.106 207.996V209.637H688.466V207.996H690.106ZM690.106 209.637V211.277H688.466V209.637H690.106ZM691.746 209.637V211.277H690.106V209.637H691.746ZM693.387 209.637V211.277H691.746V209.637H693.387ZM695.027 209.637V211.277H693.387V209.637H695.027ZM695.027 211.277V212.917H693.387V211.277H695.027ZM696.667 211.277V212.917H695.027V211.277H696.667ZM696.667 209.637V211.277H695.027V209.637H696.667ZM695.027 212.917V214.558H693.387V212.917H695.027ZM693.387 212.917V214.558H691.746V212.917H693.387ZM693.387 211.277V212.917H691.746V211.277H693.387ZM691.746 211.277V212.917H690.106V211.277H691.746ZM691.746 212.917V214.558H690.106V212.917H691.746ZM691.746 214.558V216.198H690.106V214.558H691.746ZM690.106 214.558V216.198H688.466V214.558H690.106ZM688.466 214.558V216.198H686.825V214.558H688.466ZM686.825 214.558V216.198H685.185V214.558H686.825ZM685.185 214.558V216.198H683.545V214.558H685.185ZM683.545 214.558V216.198H681.904V214.558H683.545ZM681.904 214.558V216.198H680.264V214.558H681.904ZM680.264 214.558V216.198H678.624V214.558H680.264ZM681.904 212.917V214.558H680.264V212.917H681.904ZM683.545 212.917V214.558H681.904V212.917H683.545ZM685.185 212.917V214.558H683.545V212.917H685.185ZM686.825 212.917V214.558H685.185V212.917H686.825ZM688.466 212.917V214.558H686.825V212.917H688.466ZM690.106 212.917V214.558H688.466V212.917H690.106ZM690.106 211.277V212.917H688.466V211.277H690.106ZM688.466 211.277V212.917H686.825V211.277H688.466ZM686.825 211.277V212.917H685.185V211.277H686.825ZM685.185 211.277V212.917H683.545V211.277H685.185ZM683.545 211.277V212.917H681.904V211.277H683.545ZM681.904 211.277V212.917H680.264V211.277H681.904ZM680.264 212.917V214.558H678.624V212.917H680.264ZM678.624 212.917V214.558H676.984V212.917H678.624ZM676.984 212.917V214.558H675.343V212.917H676.984ZM676.984 211.277V212.917H675.343V211.277H676.984ZM675.343 211.277V212.917H673.703V211.277H675.343ZM675.343 209.637V211.277H673.703V209.637H675.343ZM676.984 209.637V211.277H675.343V209.637H676.984ZM678.624 209.637V211.277H676.984V209.637H678.624ZM680.264 209.637V211.277H678.624V209.637H680.264ZM681.904 209.637V211.277H680.264V209.637H681.904ZM683.545 209.637V211.277H681.904V209.637H683.545ZM685.185 209.637V211.277H683.545V209.637H685.185ZM686.825 209.637V211.277H685.185V209.637H686.825ZM688.466 209.637V211.277H686.825V209.637H688.466ZM680.264 211.277V212.917H678.624V211.277H680.264ZM678.624 211.277V212.917H676.984V211.277H678.624ZM695.027 201.435V203.076H693.387V201.435H695.027ZM698.308 203.076V204.716H696.667V203.076H698.308ZM696.667 203.076V204.716H695.027V203.076H696.667ZM695.027 203.076V204.716H693.387V203.076H695.027ZM693.387 203.076V204.716H691.746V203.076H693.387ZM693.387 201.435V203.076H691.746V201.435H693.387ZM691.746 201.435V203.076H690.106V201.435H691.746ZM691.746 203.076V204.716H690.106V203.076H691.746ZM681.904 194.874V196.514H680.264V194.874H681.904ZM675.343 196.514V198.155H673.703V196.514H675.343ZM675.343 198.155V199.795H673.703V198.155H675.343ZM676.984 198.155V199.795H675.343V198.155H676.984ZM676.984 199.795V201.435H675.343V199.795H676.984ZM678.624 199.795V201.435H676.984V199.795H678.624ZM680.264 201.435V203.076H678.624V201.435H680.264ZM680.264 199.795V201.435H678.624V199.795H680.264ZM680.264 198.155V199.795H678.624V198.155H680.264ZM680.264 196.514V198.155H678.624V196.514H680.264ZM678.624 196.514V198.155H676.984V196.514H678.624ZM678.624 198.155V199.795H676.984V198.155H678.624ZM676.984 196.514V198.155H675.343V196.514H676.984ZM681.904 201.435V203.076H680.264V201.435H681.904ZM683.545 201.435V203.076H681.904V201.435H683.545ZM685.185 201.435V203.076H683.545V201.435H685.185ZM686.825 201.435V203.076H685.185V201.435H686.825ZM686.825 199.795V201.435H685.185V199.795H686.825ZM685.185 199.795V201.435H683.545V199.795H685.185ZM683.545 199.795V201.435H681.904V199.795H683.545ZM681.904 199.795V201.435H680.264V199.795H681.904ZM681.904 198.155V199.795H680.264V198.155H681.904ZM681.904 196.514V198.155H680.264V196.514H681.904ZM683.545 196.514V198.155H681.904V196.514H683.545ZM685.185 196.514V198.155H683.545V196.514H685.185ZM686.825 196.514V198.155H685.185V196.514H686.825ZM686.825 198.155V199.795H685.185V198.155H686.825ZM685.185 198.155V199.795H683.545V198.155H685.185ZM683.545 198.155V199.795H681.904V198.155H683.545ZM688.466 196.514V198.155H686.825V196.514H688.466ZM690.106 196.514V198.155H688.466V196.514H690.106ZM690.106 198.155V199.795H688.466V198.155H690.106ZM690.106 199.795V201.435H688.466V199.795H690.106ZM690.106 201.435V203.076H688.466V201.435H690.106ZM688.466 201.435V203.076H686.825V201.435H688.466ZM688.466 199.795V201.435H686.825V199.795H688.466ZM688.466 198.155V199.795H686.825V198.155H688.466ZM690.106 203.076V204.716H688.466V203.076H690.106ZM691.746 196.514V198.155H690.106V196.514H691.746ZM696.667 201.435V203.076H695.027V201.435H696.667ZM696.667 199.795V201.435H695.027V199.795H696.667ZM695.027 198.155V199.795H693.387V198.155H695.027ZM693.387 198.155V199.795H691.746V198.155H693.387ZM691.746 198.155V199.795H690.106V198.155H691.746ZM691.746 199.795V201.435H690.106V199.795H691.746ZM693.387 199.795V201.435H691.746V199.795H693.387ZM695.027 199.795V201.435H693.387V199.795H695.027ZM690.106 191.593V193.234H688.466V191.593H690.106Z" fill="#433939"/>
<defs>
<filter id="filter0_d_208_49" x="324.396" y="114.725" width="431.209" height="174.066" filterUnits="userSpaceOnUse" color-interpolation-filters="sRGB">
<feFlood flood-opacity="0" result="BackgroundImageFix"/>
<feColorMatrix in="SourceAlpha" type="matrix" values="0 0 0 0 0 0 0 0 0 0 0 0 0 0 0 0 0 0 127 0" result="hardAlpha"/>
<feOffset dy="3.95604"/>
<feGaussianBlur stdDeviation="7.91209"/>
<feComposite in2="hardAlpha" operator="out"/>
<feColorMatrix type="matrix" values="0 0 0 0 0 0 0 0 0 0 0 0 0 0 0 0 0 0 0.25 0"/>
<feBlend mode="normal" in2="BackgroundImageFix" result="effect1_dropShadow_208_49"/>
<feBlend mode="normal" in="SourceGraphic" in2="effect1_dropShadow_208_49" result="shape"/>
</filter>
</defs>
</svg>
